<svg version="1.1" id="svg2" xml:space="preserve" sodipodi:docname="Діти Квіти Вектор.ai" xmlns:inkscape="http://www.inkscape.org/namespaces/inkscape" xmlns:sodipodi="http://sodipodi.sourceforge.net/DTD/sodipodi-0.dtd" xmlns="http://www.w3.org/2000/svg" xmlns:svg="http://www.w3.org/2000/svg" viewBox="103.6 36.6 650.8 854.88"><defs id="defs6"><clipPath clipPathUnits="userSpaceOnUse" id="clipPath16"><path d="M 0,668.745 H 643 V 0 H 0 Z" id="path14"/></clipPath></defs><sodipodi:namedview id="namedview4" pagecolor="#ffffff" bordercolor="#666666" borderopacity="1.0" inkscape:pageshadow="2" inkscape:pageopacity="0.0" inkscape:pagecheckerboard="0"/><g id="g8" inkscape:groupmode="layer" inkscape:label="Діти Квіти Вектор" transform="matrix(1.3333333,0,0,-1.3333333,0,891.66)"><g id="g10"><g id="g12" clip-path="url(#clipPath16)"><g id="g18" transform="translate(307.64,530.25)"><path d="m 0,0 c -8.96,-1.18 -17.73,-5.39 -23.48,-12.48 -7.15,-8.66 -10.41,-20.16 -9.91,-31.29 -0.34,-12.97 4.85,-26.01 13.97,-35.23 8.29,-8 19.58,-13.25 31.24,-13.02 16.02,-0.79 32.18,6.81 41.88,19.57 4.63,6.25 7.73,13.88 7.51,21.75 0.41,12.65 -6.2,24.62 -15.39,32.94 C 33.61,-6.37 17.02,1.71 0,0 M -10.31,111.03 C 4.98,111.14 20.34,104.37 30.1,92.5 40.75,80.76 46.24,65.05 47.7,49.45 48.99,39.04 47.32,28.6 46.7,18.21 46.39,10.59 45.2,3.03 45.17,-4.6 c 0.43,0.11 1.31,0.35 1.75,0.47 4.49,7.92 10.22,15.2 16.99,21.3 7.67,6.09 15.81,11.93 25.24,14.92 15.26,5.48 32.86,4.39 47.23,-3.12 -9.06,-0.63 -18.42,-1.36 -26.55,-5.85 C 97.66,16.74 89.25,4.37 85.97,-8.8 c -2.71,-10.66 -0.12,-23.05 8.35,-30.49 11.94,-11.45 33.57,-12.66 45.22,-0.18 6.67,6.71 8.65,16.57 8.92,25.7 0.28,7.84 -2.78,16.56 -10.16,20.29 -11.54,5.79 -28.8,0.54 -32.56,-12.55 -1.92,-6.34 -1.61,-13.41 1.08,-19.49 2.1,-4.56 6.75,-8.55 12.05,-7.88 9.58,0.85 18.67,11.51 14.19,21.08 -1.88,5.56 -9.04,8.18 -13.86,4.6 -0.01,-0.6 -0.03,-1.79 -0.03,-2.39 2.25,-1.4 4.63,-2.57 7.15,-3.44 4.21,-6.76 -4.03,-14.28 -10.83,-12.89 -5.69,6.37 -6.02,17.19 -0.38,23.68 4.78,4.22 11.79,5.91 17.96,4.24 4.57,-1.37 7.58,-5.85 8.2,-10.43 0.95,-7.59 -0.13,-15.58 -3.83,-22.35 -3.33,-5.9 -9.79,-9.73 -16.52,-10.16 -9.47,-1.16 -19.65,2.74 -25.2,10.64 -3.34,5.02 -5.02,11.36 -3.84,17.35 1.78,10.72 7.63,20.81 16.15,27.57 12.33,8.92 28.66,8.87 42.91,5.5 2.28,-0.45 4.13,-1.95 5.84,-3.44 9.27,-8.47 18.07,-17.9 23.43,-29.4 2.79,-5.69 3.77,-12.31 2.51,-18.53 -1.47,-6.7 -6.51,-11.91 -11.97,-15.72 -14.89,-9.4 -32.64,-12.5 -49.84,-14.62 -17.09,-2.08 -34.38,-2.02 -51.42,-4.53 6.7,-2.33 13.76,-3.3 20.62,-5.03 15.51,-3.94 30.97,-8.81 44.91,-16.84 7.05,-4.28 14.06,-9.94 16.68,-18.08 1.67,-5.06 -0.04,-10.3 -1.77,-15.07 -1.24,0.23 -2.67,0.22 -3.4,1.44 -10.64,12.81 -22.88,25.38 -38.86,31.23 -10.26,4.04 -22.09,4.1 -32.26,-0.27 -11.9,-5.03 -23.15,-14.12 -26.75,-27 -4.65,-16.41 7.4,-34.01 23.12,-38.74 7.78,-2.42 16.59,-1.38 23.39,3.19 7.71,5.15 13.68,12.93 16.66,21.71 1.02,4.41 1.33,9.36 -0.8,13.5 -3.88,8.24 -13.35,12.64 -22.14,12.61 -11.01,0.37 -19.49,-9.75 -21.72,-19.76 -1.59,-6 0.44,-13.6 6.73,-15.92 6.8,-2.2 15.35,-0.89 19.95,4.99 3.39,4.89 3.16,12.51 -1.94,16.14 -2.12,1.55 -4.7,0.82 -7,0.23 1.16,-2.98 3.17,-5.5 4.5,-8.38 0.41,-5.08 -5.24,-7.68 -9.57,-7.4 -3.15,-0.36 -6.57,1.91 -6.38,5.31 0.12,8.11 5.83,17.2 14.44,18.08 6.69,0.39 13.91,-2.63 17.17,-8.74 2.26,-5.26 0.05,-11.07 -2.87,-15.58 -4.06,-6.26 -9.76,-12.25 -17.28,-14 -12.19,-2.47 -24.88,5.73 -28.97,17.21 -3.63,8.83 -0.45,19.27 6.26,25.73 7.14,6.99 16.49,12.4 26.62,13.11 9.35,0.87 18.61,-2.27 26.44,-7.22 10.75,-6.7 19.63,-15.97 27.26,-25.98 0.81,-1.07 1.84,-2.7 0.78,-3.95 -3.2,-3.79 -7.03,-6.99 -10.98,-9.95 -11.08,-8.1 -23.06,-14.88 -35.31,-21.02 -8.33,-3.94 -16.95,-7.56 -26.13,-8.97 -9.29,-1.98 -19.87,-0.38 -27.09,6.15 -7.42,6.19 -11.74,15.06 -15.65,23.69 -2.44,5.89 -5.37,11.6 -7.11,17.75 -2.19,7.34 -4.16,15.16 -9.65,20.84 -0.08,-2.7 0.15,-5.41 0.48,-8.09 0.45,-3.67 -0.46,-7.31 -0.61,-10.98 -0.27,-11.43 -3.1,-22.68 -7.17,-33.32 -4.35,-9.74 -10.39,-19.69 -20.37,-24.46 -8.24,-4.18 -18.13,-3.22 -26.47,0.17 -13.62,5.57 -25.38,14.94 -35.55,25.43 -6.95,7.29 -12.82,16.81 -12.35,27.21 8.06,10.12 18.38,18.82 30.4,23.81 10.52,4.41 22.93,3.56 32.81,-2.1 9.02,-4.9 18,-13.01 18.8,-23.89 1.63,-15.27 -13.36,-29.7 -28.54,-27.61 -6.23,0.57 -11.38,4.75 -15.39,9.26 -4.69,5.38 -9.13,12.53 -6.8,19.94 3.48,7.72 13.54,11.01 21.31,8.49 7.43,-3.46 11.39,-12.27 10.46,-20.23 -4.33,-3.64 -10.24,-2.25 -14.79,0.15 -0.4,1.9 -0.78,3.8 -1.13,5.7 2.27,2.19 3.78,4.98 4.27,8.11 -2.64,-0.16 -5.95,0.69 -7.88,-1.65 -3.58,-3.01 -3.28,-8.33 -2.16,-12.43 3.26,-8.28 14.37,-10.88 21.98,-7.48 6.21,2.83 7.78,10.74 5.9,16.76 -2.51,8.07 -8.23,16.07 -16.85,18.13 -9.69,2.04 -20.65,-2.17 -26.07,-10.56 -4.22,-7.11 -2.32,-16.07 1.94,-22.68 5.46,-8.66 13.58,-16.84 24.21,-18.18 16.1,-2.34 31.94,9.88 35.58,25.37 2.09,7.4 0.58,15.5 -3.37,22.01 -6.5,10.7 -17.65,18.05 -29.56,21.36 -14.81,3.99 -30.36,-1.81 -42.25,-10.65 -2.8,-2.01 -5.16,-4.76 -8.52,-5.87 5.32,9.43 13.34,16.93 21.16,24.27 8.22,7.74 17.28,14.61 24.68,23.18 -0.42,-0.01 -1.28,-0.03 -1.71,-0.04 -17.55,-7.96 -37.22,-11.63 -56.42,-9.37 -17.04,2.75 -32.59,14.19 -39.88,29.89 -2.11,4.65 -4.35,9.41 -4.51,14.6 7.1,-6.73 14.51,-13.43 23.58,-17.42 12.55,-5.71 27.6,-4.79 39.68,1.68 9.56,4.8 18.52,12.71 21.07,23.5 4.04,14.92 -5.06,31.13 -18.67,37.58 -10.25,5.23 -23.49,3.15 -31.86,-4.68 -6.75,-5.94 -13.83,-13.48 -13.76,-23.07 -0.39,-6.99 4.28,-13.18 9.94,-16.78 7.03,-4.59 16.89,-6.34 24.23,-1.45 7.35,5.22 13.6,13.89 12.25,23.33 -0.53,4.71 -4.44,8.44 -8.99,9.35 -5.42,1.01 -11.74,0.87 -16.08,-2.98 -4.72,-3.95 -6.12,-11.96 -1.81,-16.69 1.75,-2.06 4.63,-2.05 7.08,-2.35 0.4,3.63 -1.8,6.5 -3.17,9.62 1.28,6.73 9.5,7.15 14.79,5.43 3.3,-4.39 1.26,-10.19 -1.57,-14.25 -2.66,-3.54 -6.34,-6.76 -10.85,-7.48 -5.73,-0.6 -11.49,1.84 -15.62,5.74 -4.18,3.73 -4.12,10.44 -1.74,15.14 3.58,6.37 8.95,11.85 15.44,15.26 6.31,2.7 14.06,2.77 20.08,-0.77 8.94,-4.91 15.29,-14.9 14.6,-25.26 -0.35,-6.56 -3.99,-12.5 -8.79,-16.81 -7.54,-6.4 -17.03,-10.75 -26.98,-11.25 -10.24,-0.22 -20.23,3.9 -27.99,10.45 -6.29,4.78 -11.25,10.97 -16.59,16.73 -0.64,10.38 1.1,20.76 3.82,30.75 2.81,9.29 7.45,18.87 16.11,23.98 9.49,5.8 21.45,4.5 31.61,1.32 21.03,-6.68 39.28,-19.45 57.89,-30.91 4.23,-2.4 8.1,-6.07 13.15,-6.5 -0.51,0.28 -1.52,0.85 -2.02,1.13 -12.3,14.67 -21.86,31.75 -26.92,50.27 -2.07,8.15 -4.52,16.47 -3.59,24.98 1.26,11.05 8.46,21.3 18.53,26.09 5.38,2.58 11.22,4.42 17.23,4.6 C -26.45,99.05 -34.34,86.66 -35.87,72.35 -37.43,61.16 -34.28,49.27 -26.69,40.79 -19.56,32.45 -9.6,25.04 1.88,25.46 17.97,24.95 31.22,40.7 30.69,56.25 30.95,65.57 25.19,74.23 17.2,78.69 11.58,81.78 5.41,84.31 -1.08,84.42 -6.31,84.51 -11.76,82.38 -14.91,78.09 -20.49,70.77 -20.88,60.03 -16.03,52.25 -10.4,44.51 0.2,41.9 9.23,44.06 14.31,45.7 17.91,51.22 16.81,56.55 15.88,62.4 12.26,68.76 6.06,70.1 1.07,71.54 -4.9,68.83 -6.61,63.84 -6.8,62.05 -6.54,60.25 -6.41,58.47 -1.55,58.11 0.16,64.42 5.11,64 8.2,61.32 10.98,57.51 10.12,53.18 8.8,50.15 4.88,49.74 2,50.03 c -4.98,0.66 -10.72,2.34 -13.23,7.11 -2.45,5.89 -2.19,13.89 3.05,18.22 3.55,3.14 8.78,2.66 13.03,1.5 6.55,-2.15 13.54,-5.35 16.87,-11.79 6.37,-12.1 -1.4,-28.74 -14.44,-32.29 -7.26,-2.19 -15.12,0.46 -21,4.86 -10.04,7.08 -17.02,19.13 -15.83,31.66 1.43,15.66 10.34,29.25 19.24,41.73" style="fill:#e9455d;fill-opacity:1;fill-rule:nonzero;stroke:none" id="path20"/></g><g id="g22" transform="translate(104.81,110.59)"><path d="m 0,0 c 1.03,-11.67 1.75,-23.37 2.15,-35.07 0.03,-12.03 0.58,-24.17 -1.78,-36.04 10.17,0.87 20.16,2.86 29.98,5.61 0.64,25.33 0.9,50.66 1.33,75.99 C 21.11,7.03 10.58,3.44 0,0 m -3.1,13.14 c 14.79,3.75 29.52,7.68 44.29,11.47 -1.44,-29.43 -2.85,-58.86 -4.18,-88.3 3.36,0.85 6.69,1.78 10.05,2.66 -1.2,-12.74 -2.13,-25.51 -3.18,-38.27 -1.91,1.13 -3.79,2.3 -5.66,3.48 -0.3,6.82 -0.41,13.65 -0.69,20.47 -15.21,-4.61 -31.28,-5.18 -46.71,-8.78 -1.19,-0.34 -2.39,-0.68 -3.49,-1.27 -2.83,-5.93 -4.47,-12.34 -7.07,-18.37 -1.67,-2.93 -4.78,-4.61 -7.35,-6.67 2.23,8.16 4.58,16.28 6.8,24.44 1.1,3.52 -1.01,8.04 2.13,10.79 2.54,2.89 6.82,2.16 10.25,2.84 2.93,6.67 3.15,14.08 3.51,21.24 0.8,22.1 -0.64,44.22 -2.7,66.22 1.34,-0.64 2.67,-1.29 4,-1.95" style="fill:#e9455d;fill-opacity:1;fill-rule:nonzero;stroke:none" id="path24"/></g><g id="g26" transform="translate(325.13,87.42)"><path d="M 0,0 C 12.13,12.6 21.37,27.81 27.95,43.96 34.07,40.78 40.04,37.3 46.14,34.06 33.84,17.68 18.75,3.39 1.68,-7.94 c 11.02,-15.25 22.38,-30.25 33.39,-45.5 1.48,-1.8 -1.46,-3.2 -2.17,-4.67 -10.91,13.27 -21.49,26.81 -32.26,40.19 0.52,-13.07 1.61,-26.11 2.53,-39.16 -1.71,-1.68 -3.43,-3.36 -5.18,-5.01 -3.8,30.15 -7.02,60.36 -10.6,90.54 3.15,0.74 6.3,1.5 9.45,2.26 C -2,20.49 -1.15,10.23 0,0" style="fill:#e9455d;fill-opacity:1;fill-rule:nonzero;stroke:none" id="path28"/></g><g id="g30" transform="translate(167.98,109.97)"><path d="M 0,0 C 4.73,1.88 10.66,1.65 14.4,-2.14 9.44,-3.08 3.59,-0.48 -0.61,-4.27 c -3.74,-3.83 0.39,-10.46 5.03,-11.18 4.38,-1.34 8.8,2.11 9.39,6.46 -0.89,0.06 -2.67,0.19 -3.56,0.26 1.56,1.46 2.99,3.5 5.33,3.64 4.43,-0.57 6.52,-6.16 4.42,-9.84 -2.23,-4.38 -6.59,-7.75 -11.46,-8.59 -4.57,-0.5 -9.12,1.68 -12.13,5.06 C -8.62,-13.12 -6.72,-3.01 0,0" style="fill:#e9455d;fill-opacity:1;fill-rule:nonzero;stroke:none" id="path32"/></g><g id="g34" transform="translate(431.01,110.02)"><path d="m 0,0 c 4.65,1.84 10.2,1.36 14.12,-1.9 -4.68,-1.72 -10.16,1.52 -14.34,-2 -4.48,-3.32 -0.73,-10.32 3.8,-11.47 4.58,-1.67 9.11,1.73 10.32,6.1 -0.92,0.14 -2.76,0.41 -3.68,0.55 1.49,1.46 2.9,3.57 5.24,3.52 4.33,-0.44 6.45,-6.19 4.36,-9.72 -3.06,-6.09 -10.79,-10.82 -17.53,-7.83 -4.51,1.95 -8.93,5.99 -8.96,11.24 C -6.78,-6.92 -4.5,-1.75 0,0" style="fill:#e9455d;fill-opacity:1;fill-rule:nonzero;stroke:none" id="path36"/></g><g id="g38" transform="translate(380.82,62.28)"><path d="m 0,0 c -0.11,-6.47 -0.07,-12.95 -0.06,-19.42 7.09,0.49 14.11,3.18 19.24,8.19 1.75,1.78 3,4.54 1.78,6.96 C 19.02,-0.54 14.59,0.64 10.85,1.69 7.14,2.92 3.52,0.93 0,0 M 0.88,24.71 C 0.53,19.79 0.25,14.85 -0.03,9.92 c 6.66,2.54 13.96,4.71 18.91,10.14 2.47,2.51 1.9,8.06 -2.17,8.41 C 11.2,28.99 6,26.4 0.88,24.71 m -10.76,0.56 c 9.84,5.92 21.05,9.76 32.54,10.43 3.53,0.05 7.99,0.01 10.08,-3.39 2.11,-3.74 0.53,-8.26 -1.57,-11.64 -4.53,-6.9 -11.24,-12.08 -18.42,-16 4.96,-2.07 10.22,-3.64 14.76,-6.59 2.61,-1.58 4.23,-4.77 3.18,-7.79 -1.71,-5.67 -6.61,-9.61 -11.33,-12.8 -6.85,-4.54 -15.26,-6.08 -23.37,-5.4 -1.84,17.74 -4.12,35.43 -5.87,53.18" style="fill:#e9455d;fill-opacity:1;fill-rule:nonzero;stroke:none" id="path40"/></g><g id="g42" transform="translate(197.83,92.78)"><path d="m 0,0 c 14.77,-0.03 29.55,-0.11 44.31,0.43 -1.61,-3.87 -3.24,-7.74 -4.7,-11.67 -4.2,0.57 -8.37,1.29 -12.55,1.96 -1.49,-14.7 -3.32,-29.37 -4.96,-44.06 -0.14,-2.66 -2.71,-4.12 -4.35,-5.9 -0.38,17.04 0.1,34.08 0.24,51.12 C 12.43,-7.31 6.91,-6.33 1.36,-5.51 0.91,-3.67 0.44,-1.83 0,0" style="fill:#e9455d;fill-opacity:1;fill-rule:nonzero;stroke:none" id="path44"/></g><g id="g46" transform="translate(460.66,92.8)"><path d="m 0,0 c 14.71,-0.07 29.43,-0.12 44.14,0.4 -1.43,-3.92 -3.08,-7.76 -4.57,-11.67 -4.16,0.57 -8.29,1.33 -12.46,1.88 -1.67,-14.59 -3.32,-29.19 -4.99,-43.78 -0.01,-2.84 -2.65,-4.35 -4.49,-6.06 -0.05,17.06 0.56,34.13 0.09,51.19 C 12.27,-7.28 6.85,-6.34 1.41,-5.6 0.93,-3.73 0.45,-1.87 0,0" style="fill:#e9455d;fill-opacity:1;fill-rule:nonzero;stroke:none" id="path48"/></g><g id="g50" transform="translate(251.99,88.8)"><path d="m 0,0 c 1.79,-0.15 3.59,-0.32 5.38,-0.5 0.51,-10.55 0.48,-21.11 0.75,-31.66 15.06,10.92 29.88,22.18 44.93,33.12 -0.38,-18.43 -0.81,-36.86 -0.77,-55.3 -1.15,-0.9 -2.29,-1.81 -3.42,-2.72 -1.04,13.25 -1.38,26.54 -2.54,39.77 C 31.75,-31.18 18.72,-44.66 6.23,-58.63 4.4,-57.09 2.59,-55.53 0.77,-53.99 0.5,-35.99 0.13,-18 0,0" style="fill:#e9455d;fill-opacity:1;fill-rule:nonzero;stroke:none" id="path52"/></g><g id="g54" transform="translate(515.49,34.91)"><path d="M 0,0 C -0.17,17.96 -0.56,35.93 -0.69,53.89 1.1,53.74 2.92,53.58 4.73,53.43 5.14,42.86 5.02,32.28 5.56,21.71 20.46,32.73 35.25,43.91 50.3,54.72 50.08,36.43 49.52,18.15 49.55,-0.13 48.44,-1.21 47.34,-2.28 46.25,-3.36 45.07,9.9 44.75,23.24 43.77,36.52 30.83,22.88 18.14,9.01 5.38,-4.79 3.61,-3.16 1.82,-1.57 0,0" style="fill:#e9455d;fill-opacity:1;fill-rule:nonzero;stroke:none" id="path56"/></g><g id="g58" transform="translate(432.91,75.78)"><path d="M 0,0 C 3.41,1.46 6.82,2.95 10.24,4.4 11.52,-11.94 9.66,-28.49 4.88,-44.17 3.45,-44.23 2.02,-44.29 0.6,-44.36 0.93,-29.6 2.62,-14.63 0,0" style="fill:#e9455d;fill-opacity:1;fill-rule:nonzero;stroke:none" id="path60"/></g><g id="g62" transform="translate(170.09,75.77)"><path d="m 0,0 c 3.43,1.52 6.89,2.98 10.39,4.33 1,-16.3 -0.61,-32.84 -5.54,-48.46 C 3.43,-44.2 2.02,-44.28 0.6,-44.37 0.94,-29.61 2.7,-14.63 0,0" style="fill:#e9455d;fill-opacity:1;fill-rule:nonzero;stroke:none" id="path64"/></g><g id="g66" transform="translate(303.74,528.33)"><path d="m 0,0 c -7.99,-1.75 -15.31,-6.38 -20.08,-13.07 -16.33,-22.22 -9,-58.31 15.94,-70.99 22.41,-12.33 53.26,-2.04 64.8,20.49 4.97,9.67 4.82,21.67 -0.11,31.32 C 54.52,-19.39 42.97,-9.95 30.29,-4.06 20.95,0.44 10.19,2.05 0,0 m 3.9,1.92 c 17.02,1.71 33.61,-6.37 45.82,-17.76 9.19,-8.32 15.8,-20.29 15.39,-32.94 0.22,-7.87 -2.88,-15.5 -7.51,-21.75 -9.7,-12.76 -25.86,-20.36 -41.88,-19.57 -11.66,-0.23 -22.95,5.02 -31.24,13.02 -9.12,9.22 -14.31,22.26 -13.97,35.23 -0.5,11.13 2.76,22.63 9.91,31.29 5.75,7.09 14.52,11.3 23.48,12.48" style="fill:#fa9bb1;fill-opacity:1;fill-rule:nonzero;stroke:none" id="path68"/></g><g id="g70" transform="translate(308.05,519.74)"><path d="m 0,0 c 11.86,2.07 23.95,-2.23 33.44,-9.25 9.44,-6.66 16.42,-17.28 17.39,-28.94 0.48,-6.19 -1.85,-12.24 -5.16,-17.36 -9.63,-14.18 -29.26,-20.85 -45.4,-14.75 -13.24,4.57 -23,17.33 -24.6,31.17 -1.42,6.4 0,12.93 1.86,19.08 3.36,9.91 11.8,18.57 22.47,20.05" style="fill:#fa9bb1;fill-opacity:1;fill-rule:nonzero;stroke:none" id="path72"/></g><g id="g74" transform="translate(308.05,519.74)"><path d="m 0,0 c -10.67,-1.48 -19.11,-10.14 -22.47,-20.05 -1.86,-6.15 -3.28,-12.68 -1.86,-19.08 1.6,-13.84 11.36,-26.6 24.6,-31.17 16.14,-6.1 35.77,0.57 45.4,14.75 3.31,5.12 5.64,11.17 5.16,17.36 -0.97,11.66 -7.95,22.28 -17.39,28.94 C 23.95,-2.23 11.86,2.07 0,0 m -4.31,8.59 c 10.19,2.05 20.95,0.44 30.29,-4.06 12.68,-5.89 24.23,-15.33 30.26,-28.19 4.93,-9.65 5.08,-21.65 0.11,-31.32 -11.54,-22.53 -42.39,-32.82 -64.8,-20.49 -24.94,12.68 -32.27,48.77 -15.94,70.99 4.77,6.69 12.09,11.32 20.08,13.07" style="fill:#5cc2d1;fill-opacity:1;fill-rule:nonzero;stroke:none" id="path76"/></g><g id="g78" transform="translate(326.49,251.8)"><path d="m 0,0 c 11.28,0.72 22.72,0.67 33.91,-1.1 8.07,-1.64 16.3,-2.24 24.33,-4.03 45.78,-8.99 88.48,-29.86 126.77,-56.12 6.88,-4.63 14.01,-9.42 18.6,-16.52 2.6,-3.6 -1.32,-7.24 -2.94,-10.35 -8.14,-13.44 -19.96,-24.85 -34.44,-31.2 -12.65,-5.26 -27.05,-5.93 -40.23,-2.3 -6.55,1.42 -12.87,4.09 -17.9,8.6 -24.39,21.18 -56.04,33.21 -88.13,35.38 -33.46,2.45 -68.04,-5.19 -96.31,-23.54 -4.75,-2.88 -9.04,-6.63 -14.39,-8.38 -15.08,-5.13 -32.32,-5.11 -46.8,1.93 -15.71,7.36 -27.28,21.32 -35.6,36.18 -1.64,2.61 0.73,5.19 2.28,7.14 4.53,5.6 10.86,9.18 16.86,12.95 24.57,15.61 50.97,28.4 78.6,37.61 18.66,6.33 38.1,10.17 57.68,12.27 C -11.83,-0.71 -5.88,-0.86 0,0" style="fill:#5cc2d1;fill-opacity:1;fill-rule:nonzero;stroke:none" id="path80"/></g><g id="g82" transform="translate(319.85,426.1)"><path d="m 0,0 c 1.92,-1.31 3.22,-3.27 4.06,-5.4 3.52,-8.46 5.43,-17.46 7.38,-26.37 10.79,-42.56 19.22,-85.67 27.1,-128.85 0.82,-4.9 2.09,-9.77 2.01,-14.78 -11.19,1.77 -22.63,1.82 -33.91,1.1 -0.44,3.58 0.01,7.15 0.31,10.71 0.89,21.33 1.59,42.68 0.88,64.02 -0.66,7.34 -0.37,14.71 -0.85,22.06 -1.05,13.96 -1.97,27.97 -4.42,41.78 -0.77,4.14 -1.51,8.38 -3.39,12.19 C -0.56,-15.69 0.41,-7.87 0,0" style="fill:#73a13f;fill-opacity:1;fill-rule:nonzero;stroke:none" id="path84"/></g><g id="g86" transform="translate(419.52,322.63)"><path d="m 0,0 c 22.46,7.68 46.7,7.63 70.05,5.17 10.82,-1.25 21.57,-3.09 32.21,-5.41 2.55,-14.53 3.73,-30.37 -2.88,-44.04 -5.11,-10.78 -16.35,-17.07 -27.52,-19.81 -20.28,-4.97 -41.35,-3 -61.93,-1.41 -16.53,1.73 -33.03,3.78 -49.53,5.81 -3.66,11.47 -1.6,24.34 4.83,34.43 7.97,12.38 21,20.68 34.77,25.26" style="fill:#73a13f;fill-opacity:1;fill-rule:nonzero;stroke:none" id="path88"/></g><g id="g90" transform="translate(163.41,313.98)"><path d="m 0,0 c 22.54,7.49 46.19,12.7 70.06,12.07 19.85,-0.59 40.07,-5.45 56.57,-16.88 14.91,-9.84 26.32,-25.35 29.93,-42.99 -36.51,-6.14 -72.8,-13.68 -109.48,-18.78 -14.47,-2.06 -29.18,-3 -43.76,-1.79 -13.63,1.18 -27.54,5.9 -37.13,16.03 -8.25,8.58 -12.68,19.96 -15.71,31.28 C -33.54,-12.88 -16.93,-5.97 0,0" style="fill:#73a13f;fill-opacity:1;fill-rule:nonzero;stroke:none" id="path92"/></g></g></g></g></svg>